<svg width="19" height="20" viewBox="0 0 19 20" fill="none" xmlns="http://www.w3.org/2000/svg">
<path d="M1.67163 3.13672L7.67163 3.13672M7.67163 3.13672C7.67163 4.24129 8.56706 5.13672 9.67163 5.13672C10.7762 5.13672 11.6716 4.24129 11.6716 3.13672M7.67163 3.13672C7.67163 2.03215 8.56706 1.13672 9.67163 1.13672C10.7762 1.13672 11.6716 2.03215 11.6716 3.13672M11.6716 3.13672L17.6716 3.13672M1.67163 10.1367H13.6716M13.6716 10.1367C13.6716 11.2413 14.5671 12.1367 15.6716 12.1367C16.7762 12.1367 17.6716 11.2413 17.6716 10.1367C17.6716 9.03215 16.7762 8.13672 15.6716 8.13672C14.5671 8.13672 13.6716 9.03215 13.6716 10.1367ZM5.67163 17.1367H17.6716M5.67163 17.1367C5.67163 16.0321 4.7762 15.1367 3.67163 15.1367C2.56706 15.1367 1.67163 16.0321 1.67163 17.1367C1.67163 18.2413 2.56706 19.1367 3.67163 19.1367C4.7762 19.1367 5.67163 18.2413 5.67163 17.1367Z" stroke="#171717" stroke-width="1.5" stroke-linecap="round"/>
</svg>
