<svg width="33" height="33" viewBox="0 0 33 33" fill="none" xmlns="http://www.w3.org/2000/svg">
<path d="M12.5003 23.1667V24.5C12.5003 25.0253 12.6037 25.5454 12.8048 26.0307C13.0058 26.516 13.3004 26.957 13.6719 27.3284C14.0433 27.6999 14.4842 27.9945 14.9696 28.1955C15.4549 28.3965 15.975 28.5 16.5003 28.5C17.0256 28.5 17.5457 28.3965 18.031 28.1955C18.5163 27.9945 18.9573 27.6999 19.3287 27.3284C19.7001 26.957 19.9948 26.516 20.1958 26.0307C20.3968 25.5454 20.5003 25.0253 20.5003 24.5V23.1667M24.5003 12.5C24.5003 16.5 27.167 23.1667 27.167 23.1667H5.83362C5.83362 23.1667 8.50028 17.8333 8.50028 12.5C8.50028 8.14266 12.143 4.5 16.5003 4.5C20.8576 4.5 24.5003 8.14267 24.5003 12.5Z" stroke="white" stroke-width="1.5" stroke-linecap="round" stroke-linejoin="round"/>
</svg>
