<svg width="24" height="25" viewBox="0 0 24 25" fill="none" xmlns="http://www.w3.org/2000/svg">
<path d="M20 15.1367C21.3082 13.635 22 12.3032 22 12.3032C22 12.3032 18.3636 5.30322 12 5.30322C11.6588 5.30322 11.3254 5.32335 11 5.36144C10.6578 5.40151 10.3244 5.46144 10 5.53874M12 9.30322C12.3506 9.30322 12.6872 9.36338 13 9.47393C13.8524 9.77521 14.528 10.4508 14.8293 11.3032C14.9398 11.616 15 11.9526 15 12.3032M3 3.30322L21 21.3032M12 15.3032C11.6494 15.3032 11.3128 15.2431 11 15.1325C10.1476 14.8312 9.47198 14.1556 9.1707 13.3032C9.11386 13.1424 9.07034 12.9753 9.04147 12.8032M4.14701 9.30322C3.83877 9.64773 3.56234 9.98564 3.31864 10.3032C2.45286 11.4315 2 12.3032 2 12.3032C2 12.3032 5.63636 19.3032 12 19.3032C12.3412 19.3032 12.6746 19.2831 13 19.245" stroke="#343434" stroke-width="1.5" stroke-linecap="round" stroke-linejoin="round"/>
</svg>
