<svg width="273" height="93" viewBox="0 0 273 93" fill="none" xmlns="http://www.w3.org/2000/svg">
<path d="M9.71815 52.4209H3.71552V15.1823H11.8858L22.6127 36.7474L26.0031 44.473H26.4477L29.7269 36.7474L40.3427 15.1823H48.5129V52.4209H42.5103V29.5775L42.7326 24.1863H42.288L40.0092 29.5775L29.7269 50.1977H22.5015L12.2192 29.5775L9.94047 24.1863H9.49583L9.71815 29.5775V52.4209ZM67.9798 52.9767C58.9203 52.9767 52.9732 47.8633 52.9732 38.6371C52.9732 30.0222 58.8647 24.2419 67.8686 24.2419C76.428 24.2419 82.2638 28.9662 82.2638 37.3587C82.2638 38.3592 82.2083 39.1373 82.0415 39.971H58.5868C58.8091 45.3067 61.4214 48.1412 67.8131 48.1412C73.5934 48.1412 75.9833 46.2515 75.9833 42.9723V42.5277H81.9859V43.0279C81.9859 48.9194 76.2056 52.9767 67.9798 52.9767ZM67.7575 28.9662C61.6437 28.9662 58.9759 31.6896 58.6424 36.6362H76.5947V36.525C76.5947 31.4117 73.649 28.9662 67.7575 28.9662ZM94.8744 52.9767C89.1497 52.9767 85.537 50.3089 85.537 45.7513C85.537 41.4717 88.9829 39.2485 94.4298 38.6371L106.991 37.3032V35.6913C106.991 31.1338 104.99 29.522 99.7099 29.522C94.5965 29.522 92.0954 31.1894 92.0954 35.2467V35.469H86.1484V35.2467C86.1484 28.9662 91.3729 24.2419 100.155 24.2419C108.936 24.2419 112.882 29.0217 112.882 35.6358V52.4209H107.38V45.529H106.991C105.546 50.1977 101.155 52.9767 94.8744 52.9767ZM91.5396 45.3622C91.5396 47.5854 93.0403 48.6415 96.4862 48.6415C102.767 48.6415 106.991 46.3071 106.991 40.8603L96.1527 42.083C93.0403 42.4721 91.5396 43.1946 91.5396 45.3622ZM124.243 52.4209H118.241V15.1823H124.243V52.4209ZM145.303 52.4209H139.3V15.1823H147.47L158.197 36.7474L161.588 44.473H162.032L165.312 36.7474L175.927 15.1823H184.098V52.4209H178.095V29.5775L178.317 24.1863H177.873L175.594 29.5775L165.312 50.1977H158.086L147.804 29.5775L145.525 24.1863H145.08L145.303 29.5775V52.4209ZM197.784 52.9767C192.059 52.9767 188.447 50.3089 188.447 45.7513C188.447 41.4717 191.893 39.2485 197.339 38.6371L209.901 37.3032V35.6913C209.901 31.1338 207.9 29.522 202.62 29.522C197.506 29.522 195.005 31.1894 195.005 35.2467V35.469H189.058V35.2467C189.058 28.9662 194.283 24.2419 203.064 24.2419C211.846 24.2419 215.792 29.0217 215.792 35.6358V52.4209H210.29V45.529H209.901C208.455 50.1977 204.065 52.9767 197.784 52.9767ZM194.449 45.3622C194.449 47.5854 195.95 48.6415 199.396 48.6415C205.676 48.6415 209.901 46.3071 209.901 40.8603L199.062 42.083C195.95 42.4721 194.449 43.1946 194.449 45.3622ZM239.269 52.4209H232.933C226.986 52.4209 223.318 49.8086 223.318 43.0835V29.7999H218.649V24.7977H223.318V18.7395H229.265V24.7977H239.269V29.7999H229.265V42.75C229.265 46.1404 230.821 47.0296 234.267 47.0296H239.269V52.4209ZM256.919 52.9767C247.859 52.9767 241.912 47.8633 241.912 38.6371C241.912 30.0222 247.804 24.2419 256.808 24.2419C265.367 24.2419 271.203 28.9662 271.203 37.3587C271.203 38.3592 271.147 39.1373 270.981 39.971H247.526C247.748 45.3067 250.361 48.1412 256.752 48.1412C262.533 48.1412 264.922 46.2515 264.922 42.9723V42.5277H270.925V43.0279C270.925 48.9194 265.145 52.9767 256.919 52.9767ZM256.697 28.9662C250.583 28.9662 247.915 31.6896 247.582 36.6362H265.534V36.525C265.534 31.4117 262.588 28.9662 256.697 28.9662Z" fill="#FF7C3B"/>
<path d="M2.858 86.5321C2.52981 86.5321 2.25456 86.4209 2.03224 86.1986C1.80992 85.9763 1.69876 85.701 1.69876 85.3728C1.69876 85.0446 1.80992 84.7694 2.03224 84.5471C2.25456 84.3247 2.52981 84.2136 2.858 84.2136C3.1756 84.2136 3.44556 84.3247 3.66788 84.5471C3.8902 84.7694 4.00136 85.0446 4.00136 85.3728C4.00136 85.701 3.8902 85.9763 3.66788 86.1986C3.44556 86.4209 3.1756 86.5321 2.858 86.5321ZM6.68843 86.5321C6.36024 86.5321 6.08499 86.4209 5.86267 86.1986C5.64035 85.9763 5.52919 85.701 5.52919 85.3728C5.52919 85.0446 5.64035 84.7694 5.86267 84.5471C6.08499 84.3247 6.36024 84.2136 6.68843 84.2136C7.00602 84.2136 7.27598 84.3247 7.4983 84.5471C7.72062 84.7694 7.83178 85.0446 7.83178 85.3728C7.83178 85.701 7.72062 85.9763 7.4983 86.1986C7.27598 86.4209 7.00602 86.5321 6.68843 86.5321ZM10.5188 86.5321C10.1907 86.5321 9.91541 86.4209 9.69309 86.1986C9.47077 85.9763 9.35961 85.701 9.35961 85.3728C9.35961 85.0446 9.47077 84.7694 9.69309 84.5471C9.91541 84.3247 10.1907 84.2136 10.5188 84.2136C10.8364 84.2136 11.1064 84.3247 11.3287 84.5471C11.551 84.7694 11.6622 85.0446 11.6622 85.3728C11.6622 85.701 11.551 85.9763 11.3287 86.1986C11.1064 86.4209 10.8364 86.5321 10.5188 86.5321ZM17.2553 86.5321C16.5142 86.5321 15.8473 86.405 15.2544 86.1509C14.6616 85.8863 14.1958 85.5157 13.857 85.0393C13.5182 84.5629 13.3488 84.0071 13.3488 83.3719H15.2862C15.3285 83.8483 15.5138 84.24 15.842 84.5471C16.1808 84.8541 16.6519 85.0076 17.2553 85.0076C17.8799 85.0076 18.3669 84.8594 18.7163 84.5629C19.0656 84.2559 19.2403 83.8642 19.2403 83.3878C19.2403 83.0173 19.1291 82.7156 18.9068 82.4827C18.6951 82.2498 18.4251 82.0698 18.0969 81.9427C17.7793 81.8157 17.3347 81.6781 16.763 81.5299C16.0431 81.3393 15.4556 81.1487 15.0004 80.9582C14.5557 80.757 14.1746 80.45 13.857 80.0371C13.5394 79.6243 13.3806 79.0738 13.3806 78.3856C13.3806 77.7504 13.5394 77.1946 13.857 76.7182C14.1746 76.2418 14.6192 75.8766 15.1909 75.6225C15.7626 75.3684 16.4243 75.2414 17.1759 75.2414C18.2452 75.2414 19.1186 75.5114 19.7961 76.0513C20.4842 76.5806 20.8654 77.3111 20.9395 78.2427H18.9386C18.9068 77.8404 18.7163 77.4964 18.3669 77.2105C18.0175 76.9247 17.557 76.7818 16.9853 76.7818C16.4666 76.7818 16.0431 76.9141 15.715 77.1788C15.3868 77.4434 15.2227 77.8245 15.2227 78.3221C15.2227 78.6609 15.3232 78.9414 15.5244 79.1637C15.7361 79.3755 16.0008 79.5449 16.3184 79.6719C16.636 79.7989 17.07 79.9366 17.6205 80.0848C18.351 80.2859 18.9439 80.4871 19.3991 80.6882C19.8649 80.8894 20.2566 81.2017 20.5742 81.6251C20.9024 82.038 21.0665 82.5938 21.0665 83.2925C21.0665 83.8536 20.913 84.383 20.606 84.8805C20.3096 85.3781 19.8702 85.7804 19.2879 86.0874C18.7163 86.3838 18.0387 86.5321 17.2553 86.5321ZM33.7946 77.5281C34.4827 77.5281 35.0967 77.671 35.6366 77.9569C36.1871 78.2427 36.6159 78.6662 36.9229 79.2273C37.2405 79.7884 37.3993 80.4659 37.3993 81.2599V86.4209H35.6049V81.5299C35.6049 80.7465 35.409 80.1483 35.0173 79.7354C34.6256 79.312 34.091 79.1002 33.4134 79.1002C32.7359 79.1002 32.196 79.312 31.7937 79.7354C31.402 80.1483 31.2061 80.7465 31.2061 81.5299V86.4209H29.4117V81.5299C29.4117 80.7465 29.2158 80.1483 28.8241 79.7354C28.4324 79.312 27.8978 79.1002 27.2202 79.1002C26.5427 79.1002 26.0028 79.312 25.6005 79.7354C25.2088 80.1483 25.0129 80.7465 25.0129 81.5299V86.4209H23.2026V77.671H25.0129V78.6715C25.3094 78.3115 25.6852 78.031 26.1404 77.8298C26.5956 77.6287 27.0826 77.5281 27.6014 77.5281C28.3001 77.5281 28.9247 77.6763 29.4752 77.9728C30.0257 78.2692 30.4492 78.6979 30.7456 79.259C31.0103 78.7297 31.4231 78.3115 31.9842 78.0045C32.5453 77.6869 33.1488 77.5281 33.7946 77.5281ZM39.0995 82.0063C39.0995 81.1276 39.2794 80.3495 39.6394 79.6719C40.0099 78.9944 40.5075 78.4703 41.1321 78.0998C41.7673 77.7187 42.466 77.5281 43.2283 77.5281C43.9164 77.5281 44.5145 77.6657 45.0227 77.941C45.5414 78.2057 45.9543 78.5391 46.2613 78.9414V77.671H48.0875V86.4209H46.2613V85.1187C45.9543 85.5316 45.5361 85.8757 45.0068 86.1509C44.4775 86.4262 43.874 86.5638 43.1965 86.5638C42.4448 86.5638 41.7567 86.3733 41.1321 85.9921C40.5075 85.6004 40.0099 85.0605 39.6394 84.3724C39.2794 83.6737 39.0995 82.885 39.0995 82.0063ZM46.2613 82.038C46.2613 81.4346 46.1343 80.9105 45.8802 80.4659C45.6367 80.0213 45.3138 79.6825 44.9115 79.4496C44.5092 79.2167 44.0752 79.1002 43.6094 79.1002C43.1436 79.1002 42.7095 79.2167 42.3072 79.4496C41.9049 79.6719 41.5767 80.0054 41.3227 80.45C41.0792 80.8841 40.9574 81.4028 40.9574 82.0063C40.9574 82.6097 41.0792 83.139 41.3227 83.5943C41.5767 84.0495 41.9049 84.3988 42.3072 84.6423C42.7201 84.8752 43.1541 84.9917 43.6094 84.9917C44.0752 84.9917 44.5092 84.8752 44.9115 84.6423C45.3138 84.4094 45.6367 84.0707 45.8802 83.626C46.1343 83.1708 46.2613 82.6415 46.2613 82.038ZM52.2756 78.9414C52.5403 78.4968 52.8896 78.1527 53.3237 77.9092C53.7683 77.6552 54.2924 77.5281 54.8958 77.5281V79.4019H54.4353C53.726 79.4019 53.1861 79.5819 52.8155 79.9419C52.4556 80.3018 52.2756 80.9264 52.2756 81.8157V86.4209H50.4653V77.671H52.2756V78.9414ZM58.6719 79.1479V83.9913C58.6719 84.3194 58.746 84.5576 58.8942 84.7059C59.053 84.8435 59.3177 84.9123 59.6882 84.9123H60.7998V86.4209H59.3706C58.5554 86.4209 57.9308 86.2303 57.4968 85.8492C57.0627 85.4681 56.8457 84.8488 56.8457 83.9913V79.1479H55.8135V77.671H56.8457V75.4955H58.6719V77.671H60.7998V79.1479H58.6719ZM70.4877 81.8316C70.4877 82.1598 70.4666 82.4562 70.4242 82.7209H63.7387C63.7917 83.4196 64.051 83.9807 64.5169 84.4041C64.9827 84.8276 65.5543 85.0393 66.2319 85.0393C67.2059 85.0393 67.894 84.6318 68.2963 83.8166H70.2495C69.9849 84.6212 69.5032 85.2828 68.8044 85.8016C68.1163 86.3097 67.2588 86.5638 66.2319 86.5638C65.3955 86.5638 64.6439 86.3786 63.9769 86.008C63.3206 85.6269 62.8018 85.0976 62.4207 84.42C62.0502 83.7319 61.8649 82.9379 61.8649 82.038C61.8649 81.1382 62.0449 80.3495 62.4048 79.6719C62.7753 78.9838 63.2888 78.4544 63.9452 78.0839C64.6121 77.7134 65.3744 77.5281 66.2319 77.5281C67.0576 77.5281 67.7934 77.7081 68.4392 78.068C69.085 78.428 69.5879 78.9361 69.9478 79.5925C70.3078 80.2383 70.4877 80.9847 70.4877 81.8316ZM68.598 81.2599C68.5874 80.5929 68.3492 80.0583 67.8834 79.656C67.4176 79.2537 66.8406 79.0526 66.1525 79.0526C65.5279 79.0526 64.9933 79.2537 64.5486 79.656C64.104 80.0477 63.8393 80.5824 63.7546 81.2599H68.598ZM74.0796 78.9414C74.3442 78.4968 74.6936 78.1527 75.1277 77.9092C75.5723 77.6552 76.0963 77.5281 76.6998 77.5281V79.4019H76.2393C75.5299 79.4019 74.99 79.5819 74.6195 79.9419C74.2596 80.3018 74.0796 80.9264 74.0796 81.8157V86.4209H72.2693V77.671H74.0796V78.9414ZM94.113 75.3843V86.4209H92.3027V78.862L88.9362 86.4209H87.6816L84.2992 78.862V86.4209H82.4889V75.3843H84.4421L88.3168 84.0389L92.1757 75.3843H94.113ZM104.512 81.8316C104.512 82.1598 104.491 82.4562 104.448 82.7209H97.7628C97.8158 83.4196 98.0751 83.9807 98.5409 84.4041C99.0068 84.8276 99.5784 85.0393 100.256 85.0393C101.23 85.0393 101.918 84.6318 102.32 83.8166H104.274C104.009 84.6212 103.527 85.2828 102.829 85.8016C102.14 86.3097 101.283 86.5638 100.256 86.5638C99.4196 86.5638 98.668 86.3786 98.001 86.008C97.3447 85.6269 96.8259 85.0976 96.4448 84.42C96.0743 83.7319 95.889 82.9379 95.889 82.038C95.889 81.1382 96.069 80.3495 96.4289 79.6719C96.7994 78.9838 97.3129 78.4544 97.9693 78.0839C98.6362 77.7134 99.3985 77.5281 100.256 77.5281C101.082 77.5281 101.818 77.7081 102.463 78.068C103.109 78.428 103.612 78.9361 103.972 79.5925C104.332 80.2383 104.512 80.9847 104.512 81.8316ZM102.622 81.2599C102.612 80.5929 102.373 80.0583 101.908 79.656C101.442 79.2537 100.865 79.0526 100.177 79.0526C99.552 79.0526 99.0173 79.2537 98.5727 79.656C98.1281 80.0477 97.8634 80.5824 97.7787 81.2599H102.622ZM105.69 82.0063C105.69 81.1276 105.87 80.3495 106.23 79.6719C106.6 78.9944 107.098 78.4703 107.723 78.0998C108.358 77.7187 109.056 77.5281 109.819 77.5281C110.507 77.5281 111.105 77.6657 111.613 77.941C112.132 78.2057 112.545 78.5391 112.852 78.9414V77.671H114.678V86.4209H112.852V85.1187C112.545 85.5316 112.127 85.8757 111.597 86.1509C111.068 86.4262 110.464 86.5638 109.787 86.5638C109.035 86.5638 108.347 86.3733 107.723 85.9921C107.098 85.6004 106.6 85.0605 106.23 84.3724C105.87 83.6737 105.69 82.885 105.69 82.0063ZM112.852 82.038C112.852 81.4346 112.725 80.9105 112.471 80.4659C112.227 80.0213 111.904 79.6825 111.502 79.4496C111.1 79.2167 110.666 79.1002 110.2 79.1002C109.734 79.1002 109.3 79.2167 108.898 79.4496C108.495 79.6719 108.167 80.0054 107.913 80.45C107.67 80.8841 107.548 81.4028 107.548 82.0063C107.548 82.6097 107.67 83.139 107.913 83.5943C108.167 84.0495 108.495 84.3988 108.898 84.6423C109.311 84.8752 109.745 84.9917 110.2 84.9917C110.666 84.9917 111.1 84.8752 111.502 84.6423C111.904 84.4094 112.227 84.0707 112.471 83.626C112.725 83.1708 112.852 82.6415 112.852 82.038ZM118.866 74.6697V86.4209H117.056V74.6697H118.866ZM124.419 86.5638C123.731 86.5638 123.111 86.4421 122.561 86.1986C122.021 85.9445 121.592 85.6057 121.275 85.1823C120.957 84.7482 120.788 84.2665 120.766 83.7372H122.64C122.672 84.1077 122.847 84.42 123.164 84.6741C123.493 84.9176 123.9 85.0393 124.387 85.0393C124.895 85.0393 125.287 84.9441 125.562 84.7535C125.848 84.5524 125.991 84.2983 125.991 83.9913C125.991 83.6631 125.832 83.4196 125.515 83.2608C125.208 83.102 124.715 82.9273 124.038 82.7367C123.381 82.5568 122.847 82.3821 122.434 82.2127C122.021 82.0433 121.661 81.7839 121.354 81.4346C121.058 81.0852 120.909 80.6247 120.909 80.053C120.909 79.5872 121.047 79.1637 121.322 78.7826C121.598 78.3909 121.989 78.0839 122.497 77.8616C123.016 77.6393 123.609 77.5281 124.276 77.5281C125.271 77.5281 126.07 77.7822 126.674 78.2903C127.288 78.7879 127.616 79.4708 127.658 80.3389H125.848C125.816 79.9472 125.657 79.6349 125.372 79.4019C125.086 79.169 124.699 79.0526 124.212 79.0526C123.736 79.0526 123.371 79.1426 123.117 79.3225C122.863 79.5025 122.736 79.7407 122.736 80.0371C122.736 80.2701 122.82 80.4659 122.99 80.6247C123.159 80.7835 123.365 80.9105 123.609 81.0058C123.852 81.0905 124.212 81.2017 124.689 81.3393C125.324 81.5087 125.843 81.6834 126.245 81.8633C126.658 82.0327 127.013 82.2868 127.309 82.6256C127.605 82.9644 127.759 83.4143 127.77 83.9754C127.77 84.473 127.632 84.9176 127.357 85.3093C127.081 85.701 126.69 86.008 126.182 86.2303C125.684 86.4527 125.096 86.5638 124.419 86.5638ZM131.711 84.2453L129.789 88.6282H128.614L129.742 84.2453H131.711ZM149.042 75.3843V86.4209H147.231V78.862L143.865 86.4209H142.61L139.228 78.862V86.4209H137.417V75.3843H139.371L143.245 84.0389L147.104 75.3843H149.042ZM150.818 82.0063C150.818 81.1276 150.998 80.3495 151.358 79.6719C151.728 78.9944 152.226 78.4703 152.85 78.0998C153.485 77.7187 154.184 77.5281 154.946 77.5281C155.635 77.5281 156.233 77.6657 156.741 77.941C157.26 78.2057 157.672 78.5391 157.979 78.9414V77.671H159.806V86.4209H157.979V85.1187C157.672 85.5316 157.254 85.8757 156.725 86.1509C156.196 86.4262 155.592 86.5638 154.915 86.5638C154.163 86.5638 153.475 86.3733 152.85 85.9921C152.226 85.6004 151.728 85.0605 151.358 84.3724C150.998 83.6737 150.818 82.885 150.818 82.0063ZM157.979 82.038C157.979 81.4346 157.852 80.9105 157.598 80.4659C157.355 80.0213 157.032 79.6825 156.63 79.4496C156.227 79.2167 155.793 79.1002 155.327 79.1002C154.862 79.1002 154.428 79.2167 154.025 79.4496C153.623 79.6719 153.295 80.0054 153.041 80.45C152.797 80.8841 152.676 81.4028 152.676 82.0063C152.676 82.6097 152.797 83.139 153.041 83.5943C153.295 84.0495 153.623 84.3988 154.025 84.6423C154.438 84.8752 154.872 84.9917 155.327 84.9917C155.793 84.9917 156.227 84.8752 156.63 84.6423C157.032 84.4094 157.355 84.0707 157.598 83.626C157.852 83.1708 157.979 82.6415 157.979 82.038ZM161.58 82.0063C161.58 81.1276 161.76 80.3495 162.12 79.6719C162.49 78.9944 162.988 78.4703 163.613 78.0998C164.248 77.7187 164.952 77.5281 165.725 77.5281C166.296 77.5281 166.857 77.6552 167.408 77.9092C167.969 78.1527 168.414 78.4809 168.742 78.8938V74.6697H170.568V86.4209H168.742V85.1029C168.445 85.5263 168.033 85.8757 167.503 86.1509C166.984 86.4262 166.386 86.5638 165.709 86.5638C164.947 86.5638 164.248 86.3733 163.613 85.9921C162.988 85.6004 162.49 85.0605 162.12 84.3724C161.76 83.6737 161.58 82.885 161.58 82.0063ZM168.742 82.038C168.742 81.4346 168.615 80.9105 168.361 80.4659C168.117 80.0213 167.794 79.6825 167.392 79.4496C166.99 79.2167 166.556 79.1002 166.09 79.1002C165.624 79.1002 165.19 79.2167 164.788 79.4496C164.385 79.6719 164.057 80.0054 163.803 80.45C163.56 80.8841 163.438 81.4028 163.438 82.0063C163.438 82.6097 163.56 83.139 163.803 83.5943C164.057 84.0495 164.385 84.3988 164.788 84.6423C165.201 84.8752 165.635 84.9917 166.09 84.9917C166.556 84.9917 166.99 84.8752 167.392 84.6423C167.794 84.4094 168.117 84.0707 168.361 83.626C168.615 83.1708 168.742 82.6415 168.742 82.038ZM180.965 81.8316C180.965 82.1598 180.944 82.4562 180.902 82.7209H174.216C174.269 83.4196 174.529 83.9807 174.994 84.4041C175.46 84.8276 176.032 85.0393 176.709 85.0393C177.683 85.0393 178.371 84.6318 178.774 83.8166H180.727C180.462 84.6212 179.981 85.2828 179.282 85.8016C178.594 86.3097 177.736 86.5638 176.709 86.5638C175.873 86.5638 175.121 86.3786 174.454 86.008C173.798 85.6269 173.279 85.0976 172.898 84.42C172.528 83.7319 172.342 82.9379 172.342 82.038C172.342 81.1382 172.522 80.3495 172.882 79.6719C173.253 78.9838 173.766 78.4544 174.423 78.0839C175.09 77.7134 175.852 77.5281 176.709 77.5281C177.535 77.5281 178.271 77.7081 178.917 78.068C179.562 78.428 180.065 78.9361 180.425 79.5925C180.785 80.2383 180.965 80.9847 180.965 81.8316ZM179.076 81.2599C179.065 80.5929 178.827 80.0583 178.361 79.656C177.895 79.2537 177.318 79.0526 176.63 79.0526C176.005 79.0526 175.471 79.2537 175.026 79.656C174.581 80.0477 174.317 80.5824 174.232 81.2599H179.076ZM190.508 86.5321C189.767 86.5321 189.1 86.405 188.507 86.1509C187.915 85.8863 187.449 85.5157 187.11 85.0393C186.771 84.5629 186.602 84.0071 186.602 83.3719H188.539C188.582 83.8483 188.767 84.24 189.095 84.5471C189.434 84.8541 189.905 85.0076 190.508 85.0076C191.133 85.0076 191.62 84.8594 191.969 84.5629C192.319 84.2559 192.493 83.8642 192.493 83.3878C192.493 83.0173 192.382 82.7156 192.16 82.4827C191.948 82.2498 191.678 82.0698 191.35 81.9427C191.032 81.8157 190.588 81.6781 190.016 81.5299C189.296 81.3393 188.709 81.1487 188.253 80.9582C187.809 80.757 187.428 80.45 187.11 80.0371C186.792 79.6243 186.634 79.0738 186.634 78.3856C186.634 77.7504 186.792 77.1946 187.11 76.7182C187.428 76.2418 187.872 75.8766 188.444 75.6225C189.016 75.3684 189.677 75.2414 190.429 75.2414C191.498 75.2414 192.372 75.5114 193.049 76.0513C193.737 76.5806 194.118 77.3111 194.192 78.2427H192.192C192.16 77.8404 191.969 77.4964 191.62 77.2105C191.271 76.9247 190.81 76.7818 190.238 76.7818C189.72 76.7818 189.296 76.9141 188.968 77.1788C188.64 77.4434 188.476 77.8245 188.476 78.3221C188.476 78.6609 188.576 78.9414 188.777 79.1637C188.989 79.3755 189.254 79.5449 189.571 79.6719C189.889 79.7989 190.323 79.9366 190.874 80.0848C191.604 80.2859 192.197 80.4871 192.652 80.6882C193.118 80.8894 193.51 81.2017 193.827 81.6251C194.155 82.038 194.32 82.5938 194.32 83.2925C194.32 83.8536 194.166 84.383 193.859 84.8805C193.563 85.3781 193.123 85.7804 192.541 86.0874C191.969 86.3838 191.292 86.5321 190.508 86.5321ZM197.377 76.5118C197.048 76.5118 196.773 76.4006 196.551 76.1783C196.329 75.956 196.217 75.6807 196.217 75.3526C196.217 75.0244 196.329 74.7491 196.551 74.5268C196.773 74.3045 197.048 74.1933 197.377 74.1933C197.694 74.1933 197.964 74.3045 198.187 74.5268C198.409 74.7491 198.52 75.0244 198.52 75.3526C198.52 75.6807 198.409 75.956 198.187 76.1783C197.964 76.4006 197.694 76.5118 197.377 76.5118ZM198.266 77.671V86.4209H196.456V77.671H198.266ZM211.235 77.5281C211.923 77.5281 212.537 77.671 213.077 77.9569C213.627 78.2427 214.056 78.6662 214.363 79.2273C214.681 79.7884 214.839 80.4659 214.839 81.2599V86.4209H213.045V81.5299C213.045 80.7465 212.849 80.1483 212.457 79.7354C212.066 79.312 211.531 79.1002 210.854 79.1002C210.176 79.1002 209.636 79.312 209.234 79.7354C208.842 80.1483 208.646 80.7465 208.646 81.5299V86.4209H206.852V81.5299C206.852 80.7465 206.656 80.1483 206.264 79.7354C205.873 79.312 205.338 79.1002 204.66 79.1002C203.983 79.1002 203.443 79.312 203.041 79.7354C202.649 80.1483 202.453 80.7465 202.453 81.5299V86.4209H200.643V77.671H202.453V78.6715C202.749 78.3115 203.125 78.031 203.581 77.8298C204.036 77.6287 204.523 77.5281 205.042 77.5281C205.74 77.5281 206.365 77.6763 206.915 77.9728C207.466 78.2692 207.889 78.6979 208.186 79.259C208.45 78.7297 208.863 78.3115 209.424 78.0045C209.985 77.6869 210.589 77.5281 211.235 77.5281ZM218.953 78.9573C219.26 78.555 219.679 78.2162 220.208 77.941C220.737 77.6657 221.335 77.5281 222.002 77.5281C222.765 77.5281 223.458 77.7187 224.083 78.0998C224.718 78.4703 225.215 78.9944 225.575 79.6719C225.935 80.3495 226.115 81.1276 226.115 82.0063C226.115 82.885 225.935 83.6737 225.575 84.3724C225.215 85.0605 224.718 85.6004 224.083 85.9921C223.458 86.3733 222.765 86.5638 222.002 86.5638C221.335 86.5638 220.742 86.4315 220.224 86.1668C219.705 85.8916 219.282 85.5528 218.953 85.1505V90.5815H217.143V77.671H218.953V78.9573ZM224.273 82.0063C224.273 81.4028 224.146 80.8841 223.892 80.45C223.649 80.0054 223.32 79.6719 222.907 79.4496C222.505 79.2167 222.071 79.1002 221.605 79.1002C221.15 79.1002 220.716 79.2167 220.303 79.4496C219.901 79.6825 219.573 80.0213 219.319 80.4659C219.075 80.9105 218.953 81.4346 218.953 82.038C218.953 82.6415 219.075 83.1708 219.319 83.626C219.573 84.0707 219.901 84.4094 220.303 84.6423C220.716 84.8752 221.15 84.9917 221.605 84.9917C222.071 84.9917 222.505 84.8752 222.907 84.6423C223.32 84.3988 223.649 84.0495 223.892 83.5943C224.146 83.139 224.273 82.6097 224.273 82.0063ZM229.716 74.6697V86.4209H227.905V74.6697H229.716ZM240.112 81.8316C240.112 82.1598 240.091 82.4562 240.048 82.7209H233.363C233.416 83.4196 233.675 83.9807 234.141 84.4041C234.607 84.8276 235.179 85.0393 235.856 85.0393C236.83 85.0393 237.518 84.6318 237.92 83.8166H239.874C239.609 84.6212 239.127 85.2828 238.429 85.8016C237.741 86.3097 236.883 86.5638 235.856 86.5638C235.02 86.5638 234.268 86.3786 233.601 86.008C232.945 85.6269 232.426 85.0976 232.045 84.42C231.674 83.7319 231.489 82.9379 231.489 82.038C231.489 81.1382 231.669 80.3495 232.029 79.6719C232.4 78.9838 232.913 78.4544 233.569 78.0839C234.236 77.7134 234.999 77.5281 235.856 77.5281C236.682 77.5281 237.418 77.7081 238.063 78.068C238.709 78.428 239.212 78.9361 239.572 79.5925C239.932 80.2383 240.112 80.9847 240.112 81.8316ZM238.222 81.2599C238.212 80.5929 237.973 80.0583 237.508 79.656C237.042 79.2537 236.465 79.0526 235.777 79.0526C235.152 79.0526 234.617 79.2537 234.173 79.656C233.728 80.0477 233.464 80.5824 233.379 81.2599H238.222ZM242.624 86.5321C242.296 86.5321 242.021 86.4209 241.798 86.1986C241.576 85.9763 241.465 85.701 241.465 85.3728C241.465 85.0446 241.576 84.7694 241.798 84.5471C242.021 84.3247 242.296 84.2136 242.624 84.2136C242.942 84.2136 243.212 84.3247 243.434 84.5471C243.656 84.7694 243.767 85.0446 243.767 85.3728C243.767 85.701 243.656 85.9763 243.434 86.1986C243.212 86.4209 242.942 86.5321 242.624 86.5321Z" fill="white"/>
</svg>
