<svg width="109" height="120" viewBox="0 0 109 120" fill="none" xmlns="http://www.w3.org/2000/svg">
<path d="M47.0838 30.1945C47.0838 32.4349 45.2684 34.2522 43.027 34.2522C40.7856 34.2522 38.9692 32.4349 38.9692 30.1945C38.9692 27.9541 40.7856 26.1367 43.027 26.1367C45.2684 26.1367 47.0838 27.9541 47.0838 30.1945Z" fill="url(#paint0_radial_15_9102)"/>
<path d="M58.9923 4.05776C58.9923 6.29914 57.1759 8.11553 54.9345 8.11553C52.6931 8.11553 50.8767 6.29914 50.8767 4.05776C50.8767 1.81736 52.6931 0 54.9345 0C57.1759 0.000970293 58.9923 1.81736 58.9923 4.05776Z" fill="url(#paint1_radial_15_9102)"/>
<path d="M86.1682 20.2266H88.3688C88.9792 19.461 89.5128 18.6916 89.9369 17.9241C89.9369 17.9241 88.4562 18.8711 86.1682 20.2266Z" fill="url(#paint2_radial_15_9102)"/>
<path d="M4.45009 67.7216C3.60206 67.8574 2.78991 68.1 2.01465 68.4192V12.4644H73.0158C70.3213 14.9959 68.4302 17.7117 67.1087 20.2267H9.77699V66.8677L4.45009 67.7216ZM9.77699 110.542V102.698C6.75841 98.4585 4.30648 93.7701 2.57062 88.7255C2.37948 88.6586 2.20094 88.5644 2.01465 88.4868V118.304H26.7241C23.0467 116.113 19.6313 113.507 16.5477 110.542H9.77699ZM100.092 110.542H93.5502C90.4918 113.497 87.0773 116.103 83.3708 118.304H107.854V87.3399C106.096 92.9686 103.467 98.2354 100.092 102.957V110.542ZM100.092 27.501V52.3958L102.021 52.0872C102.683 51.9815 103.357 51.9359 104.025 51.9524C105.373 51.9873 106.664 52.2726 107.853 52.7597V12.4644H106.853C105.769 17.1489 103.769 22.765 100.092 27.501Z" fill="url(#paint3_radial_15_9102)"/>
<path d="M59.1583 37.396C59.1583 37.396 55.6836 7.97093 97.3926 2.60229C97.3926 2.60229 105.414 45.5378 62.4786 43.1023C62.4786 43.1023 79.1977 30.5545 82.3541 20.9146C82.3541 20.9146 66.5286 35.8882 59.1583 37.396Z" fill="url(#paint4_radial_15_9102)"/>
<path d="M72.5726 57.1395C72.8404 56.5981 73.0044 55.9965 73.0044 55.3522C73.0044 53.1108 71.188 51.2944 68.9467 51.2944C66.7053 51.2944 64.8899 53.1108 64.8899 55.3522C64.8899 56.4166 65.309 57.3762 65.9776 58.1001L72.5726 57.1395Z" fill="url(#paint5_radial_15_9102)"/>
<path d="M38.0748 62.1656C34.543 58.4581 31.2857 54.2897 30.0631 50.557C30.0631 50.557 36.4923 56.6378 43.0631 61.4388L52.7864 60.0222C51.003 50.9664 43.6715 35.9308 15.0226 32.2437C15.0226 32.2437 11.2404 52.4966 22.7811 64.3943L38.0748 62.1656Z" fill="url(#paint6_radial_15_9102)"/>
<path d="M103.248 61.1682C108.276 88.0871 90.5259 113.982 63.608 119.006C36.6891 124.032 10.793 106.284 5.76978 79.3641L103.248 61.1682Z" fill="url(#paint7_radial_15_9102)"/>
<path d="M0.964901 80.2065C1.47528 82.9485 4.11444 84.7572 6.85746 84.2458L103.995 66.112C106.738 65.5987 108.545 62.9624 108.035 60.2175C107.522 57.4754 104.884 55.6678 102.142 56.1801L5.00423 74.3119C2.26218 74.8243 0.453557 77.4644 0.964901 80.2065Z" fill="url(#paint8_radial_15_9102)"/>
<g filter="url(#filter0_d_15_9102)">
<path d="M41.2694 82.5466C39.4815 83.2315 39.117 86.6142 40.4538 90.1038C41.7905 93.5935 44.3228 95.8665 46.1096 95.182C47.8963 94.4976 48.262 91.1145 46.9253 87.6248C45.5889 84.1364 43.0562 81.8622 41.2694 82.5466Z" fill="white"/>
</g>
<g filter="url(#filter1_d_15_9102)">
<path d="M67.7578 77.9724C65.8472 78.0751 64.4605 81.1825 64.6612 84.914C64.8618 88.6456 66.5738 91.5863 68.4844 91.4836C70.395 91.3808 71.7818 88.2734 71.5811 84.5419C71.3818 80.8115 69.6696 77.8696 67.7578 77.9724Z" fill="white"/>
</g>
<path d="M79.1508 98.2722C79.9388 102.288 72.3848 108.575 61.6092 110.689C50.8336 112.804 40.9213 109.944 40.1333 105.928C39.0112 100.21 49.0067 103.421 59.7823 101.306C70.5579 99.192 77.9479 92.1415 79.1508 98.2722Z" fill="white"/>
<mask id="mask0_15_9102" style="mask-type:alpha" maskUnits="userSpaceOnUse" x="40" y="96" width="40" height="16">
<path d="M79.2589 98.5863C79.9802 102.615 72.3231 108.776 61.514 110.711C50.7048 112.647 40.8412 109.623 40.1198 105.595C39.0926 99.8587 49.0335 103.235 59.8427 101.299C70.6518 99.3637 78.1576 92.4366 79.2589 98.5863Z" fill="white"/>
</mask>
<g mask="url(#mask0_15_9102)">
<mask id="mask1_15_9102" style="mask-type:alpha" maskUnits="userSpaceOnUse" x="40" y="95" width="40" height="17">
<path d="M79.1506 98.2717C79.9386 102.288 72.3846 108.574 61.609 110.689C50.8334 112.803 40.9211 109.944 40.1331 105.928C39.011 100.209 49.0064 103.42 59.782 101.306C70.5576 99.1915 77.9477 92.141 79.1506 98.2717Z" fill="white"/>
</mask>
<g mask="url(#mask1_15_9102)">
<path d="M90.351 88.3114C92.4325 92.6353 88.6227 100.605 80.7176 104.41C72.8125 108.216 63.8087 106.414 61.7272 102.09C58.7633 95.9333 67.9606 98.1112 75.8657 94.3058C83.7708 90.5004 87.1734 81.7105 90.351 88.3114Z" fill="#FFD8C4"/>
</g>
</g>
<defs>
<filter id="filter0_d_15_9102" x="35.767" y="79.5142" width="15.8446" height="20.641" filterUnits="userSpaceOnUse" color-interpolation-filters="sRGB">
<feFlood flood-opacity="0" result="BackgroundImageFix"/>
<feColorMatrix in="SourceAlpha" type="matrix" values="0 0 0 0 0 0 0 0 0 0 0 0 0 0 0 0 0 0 127 0" result="hardAlpha"/>
<feOffset dy="0.970293"/>
<feGaussianBlur stdDeviation="1.94059"/>
<feComposite in2="hardAlpha" operator="out"/>
<feColorMatrix type="matrix" values="0 0 0 0 0 0 0 0 0 0 0 0 0 0 0 0 0 0 0.25 0"/>
<feBlend mode="normal" in2="BackgroundImageFix" result="effect1_dropShadow_15_9102"/>
<feBlend mode="normal" in="SourceGraphic" in2="effect1_dropShadow_15_9102" result="shape"/>
</filter>
<filter id="filter1_d_15_9102" x="60.7607" y="75.0588" width="14.7208" height="21.2787" filterUnits="userSpaceOnUse" color-interpolation-filters="sRGB">
<feFlood flood-opacity="0" result="BackgroundImageFix"/>
<feColorMatrix in="SourceAlpha" type="matrix" values="0 0 0 0 0 0 0 0 0 0 0 0 0 0 0 0 0 0 127 0" result="hardAlpha"/>
<feOffset dy="0.970293"/>
<feGaussianBlur stdDeviation="1.94059"/>
<feComposite in2="hardAlpha" operator="out"/>
<feColorMatrix type="matrix" values="0 0 0 0 0 0 0 0 0 0 0 0 0 0 0 0 0 0 0.25 0"/>
<feBlend mode="normal" in2="BackgroundImageFix" result="effect1_dropShadow_15_9102"/>
<feBlend mode="normal" in="SourceGraphic" in2="effect1_dropShadow_15_9102" result="shape"/>
</filter>
<radialGradient id="paint0_radial_15_9102" cx="0" cy="0" r="1" gradientUnits="userSpaceOnUse" gradientTransform="translate(39.9595 25.5471) scale(13.3749 13.3749)">
<stop offset="0.3331" stop-color="#E9AD2B"/>
<stop offset="0.336" stop-color="#E9AC2B"/>
<stop offset="0.5025" stop-color="#E18A2F"/>
<stop offset="0.6602" stop-color="#DC7131"/>
<stop offset="0.8042" stop-color="#D86232"/>
<stop offset="0.9218" stop-color="#D75D33"/>
</radialGradient>
<radialGradient id="paint1_radial_15_9102" cx="0" cy="0" r="1" gradientUnits="userSpaceOnUse" gradientTransform="translate(58.0033 -0.589809) rotate(180) scale(8.95589 8.58063)">
<stop offset="0.3331" stop-color="#E9AD2B"/>
<stop offset="0.336" stop-color="#E9AC2B"/>
<stop offset="0.5025" stop-color="#E18A2F"/>
<stop offset="0.6602" stop-color="#DC7131"/>
<stop offset="0.8042" stop-color="#D86232"/>
<stop offset="0.9218" stop-color="#D75D33"/>
</radialGradient>
<radialGradient id="paint2_radial_15_9102" cx="0" cy="0" r="1" gradientUnits="userSpaceOnUse" gradientTransform="translate(87.2318 18.2843) scale(1.94691 1.94689)">
<stop offset="0.0042" stop-color="#D81988"/>
<stop offset="0.1437" stop-color="#D21A87"/>
<stop offset="0.3325" stop-color="#C11D84"/>
<stop offset="0.5493" stop-color="#A42280"/>
<stop offset="0.7851" stop-color="#7D297A"/>
<stop offset="1" stop-color="#533174"/>
</radialGradient>
<radialGradient id="paint3_radial_15_9102" cx="0" cy="0" r="1" gradientUnits="userSpaceOnUse" gradientTransform="translate(94.9572 4.77229) rotate(180) scale(116.799 111.905)">
<stop offset="0.3331" stop-color="#E9AD2B"/>
<stop offset="0.336" stop-color="#E9AC2B"/>
<stop offset="0.5025" stop-color="#E18A2F"/>
<stop offset="0.6602" stop-color="#DC7131"/>
<stop offset="0.8042" stop-color="#D86232"/>
<stop offset="0.9218" stop-color="#D75D33"/>
</radialGradient>
<radialGradient id="paint4_radial_15_9102" cx="0" cy="0" r="1" gradientUnits="userSpaceOnUse" gradientTransform="translate(93.2462 -0.348366) rotate(180) scale(42.9266 42.9266)">
<stop offset="0.3331" stop-color="#E9AD2B"/>
<stop offset="0.336" stop-color="#E9AC2B"/>
<stop offset="0.5025" stop-color="#E18A2F"/>
<stop offset="0.6602" stop-color="#DC7131"/>
<stop offset="0.8042" stop-color="#D86232"/>
<stop offset="0.9218" stop-color="#D75D33"/>
</radialGradient>
<radialGradient id="paint5_radial_15_9102" cx="0" cy="0" r="1" gradientUnits="userSpaceOnUse" gradientTransform="translate(72.0156 50.7998) rotate(180) scale(8.95478 7.19568)">
<stop offset="0.3331" stop-color="#E9AD2B"/>
<stop offset="0.336" stop-color="#E9AC2B"/>
<stop offset="0.5025" stop-color="#E18A2F"/>
<stop offset="0.6602" stop-color="#DC7131"/>
<stop offset="0.8042" stop-color="#D86232"/>
<stop offset="0.9218" stop-color="#D75D33"/>
</radialGradient>
<radialGradient id="paint6_radial_15_9102" cx="0" cy="0" r="1" gradientUnits="userSpaceOnUse" gradientTransform="translate(48.1125 29.9071) rotate(180) scale(42.3285 33.9932)">
<stop offset="0.3331" stop-color="#E9AD2B"/>
<stop offset="0.336" stop-color="#E9AC2B"/>
<stop offset="0.5025" stop-color="#E18A2F"/>
<stop offset="0.6602" stop-color="#DC7131"/>
<stop offset="0.8042" stop-color="#D86232"/>
<stop offset="0.9218" stop-color="#D75D33"/>
</radialGradient>
<radialGradient id="paint7_radial_15_9102" cx="0" cy="0" r="1" gradientUnits="userSpaceOnUse" gradientTransform="translate(83.195 68.2086) rotate(169.426) scale(59.2404 59.2404)">
<stop offset="0.0782" stop-color="#DC5838"/>
<stop offset="0.1894" stop-color="#D95338"/>
<stop offset="0.3255" stop-color="#D04438"/>
<stop offset="0.4746" stop-color="#C12B39"/>
<stop offset="0.632" stop-color="#AC093A"/>
<stop offset="0.6669" stop-color="#A7003A"/>
</radialGradient>
<radialGradient id="paint8_radial_15_9102" cx="0" cy="0" r="1" gradientUnits="userSpaceOnUse" gradientTransform="translate(73.6271 47.5778) rotate(169.426) scale(76.5781 76.5781)">
<stop offset="0.1011" stop-color="#E9AD2B"/>
<stop offset="0.1051" stop-color="#E9AC2B"/>
<stop offset="0.3372" stop-color="#E18A2F"/>
<stop offset="0.557" stop-color="#DC7131"/>
<stop offset="0.7578" stop-color="#D86232"/>
<stop offset="0.9218" stop-color="#D75D33"/>
</radialGradient>
</defs>
</svg>
