<svg width="319" height="121" viewBox="0 0 319 121" fill="none" xmlns="http://www.w3.org/2000/svg">
<g filter="url(#filter0_d_15_4396)">
<path d="M51.5619 34.6296C51.5619 36.1334 50.3433 37.3534 48.8387 37.3534C47.3342 37.3534 46.1149 36.1334 46.1149 34.6296C46.1149 33.1257 47.3342 31.9058 48.8387 31.9058C50.3433 31.9058 51.5619 33.1257 51.5619 34.6296Z" fill="url(#paint0_radial_15_4396)"/>
<path d="M59.5554 17.0851C59.5554 18.5897 58.3362 19.8089 56.8316 19.8089C55.3271 19.8089 54.1078 18.5897 54.1078 17.0851C54.1078 15.5812 55.3271 14.3613 56.8316 14.3613C58.3362 14.362 59.5554 15.5812 59.5554 17.0851Z" fill="url(#paint1_radial_15_4396)"/>
<path d="M77.7974 27.9386H79.2746C79.6843 27.4247 80.0425 26.9083 80.3271 26.3931C80.3271 26.3931 79.3332 27.0287 77.7974 27.9386Z" fill="url(#paint2_radial_15_4396)"/>
<path d="M22.9438 59.8197C22.3745 59.9109 21.8294 60.0737 21.309 60.288V22.728H68.9688C67.1602 24.4273 65.8907 26.2503 65.0036 27.9385H26.5195V59.2466L22.9438 59.8197ZM26.5195 88.5628V83.2976C24.4932 80.452 22.8474 77.3049 21.6822 73.9187C21.5539 73.8738 21.434 73.8106 21.309 73.7585V93.7734H37.8953C35.4268 92.3027 33.1342 90.5533 31.0643 88.5628H26.5195ZM87.1437 88.5628H82.7526C80.6997 90.5467 78.4077 92.2962 75.9197 93.7734H92.3543V72.9886C91.1741 76.7669 89.4097 80.3022 87.1437 83.4715V88.5628ZM87.1437 32.8214V49.5322L88.4386 49.3251C88.8828 49.2541 89.3354 49.2235 89.7842 49.2346C90.6889 49.258 91.5551 49.4495 92.3536 49.7764V22.728H91.6821C90.9546 25.8726 89.6122 29.6424 87.1437 32.8214Z" fill="url(#paint3_radial_15_4396)"/>
<path d="M59.6668 39.4636C59.6668 39.4636 57.3345 19.7119 85.3318 16.1082C85.3318 16.1082 90.7163 44.9288 61.8956 43.294C61.8956 43.294 73.1184 34.8712 75.2372 28.4004C75.2372 28.4004 64.6142 38.4515 59.6668 39.4636Z" fill="url(#paint4_radial_15_4396)"/>
<path d="M68.6712 52.7165C68.8509 52.3531 68.961 51.9492 68.961 51.5168C68.961 50.0122 67.7418 48.793 66.2372 48.793C64.7327 48.793 63.5141 50.0122 63.5141 51.5168C63.5141 52.2313 63.7954 52.8754 64.2442 53.3613L68.6712 52.7165Z" fill="url(#paint5_radial_15_4396)"/>
<path d="M45.5144 56.0904C43.1437 53.6017 40.9572 50.8036 40.1365 48.298C40.1365 48.298 44.4521 52.3798 48.8628 55.6025L55.3897 54.6516C54.1925 48.5729 49.2712 38.4801 30.0405 36.0051C30.0405 36.0051 27.5017 49.6 35.2484 57.5864L45.5144 56.0904Z" fill="url(#paint6_radial_15_4396)"/>
<path d="M89.2626 55.4209C92.6377 73.4903 80.7225 90.8726 62.6538 94.2451C44.5844 97.6182 27.2014 85.705 23.8296 67.635L89.2626 55.4209Z" fill="url(#paint7_radial_15_4396)"/>
<path d="M20.6043 68.2003C20.9468 70.0409 22.7184 71.2549 24.5597 70.9117L89.7634 58.7393C91.6046 58.3947 92.818 56.6251 92.4754 54.7825C92.1309 52.9419 90.3606 51.7285 88.52 52.0724L23.3157 64.2435C21.4751 64.5874 20.261 66.3597 20.6043 68.2003Z" fill="url(#paint8_radial_15_4396)"/>
<g filter="url(#filter1_d_15_4396)">
<path d="M47.6588 69.771C46.4586 70.2307 46.2139 72.5014 47.1112 74.8438C48.0085 77.1863 49.7084 78.712 50.9077 78.2526C52.1071 77.7931 52.3526 75.5222 51.4553 73.1798C50.5583 70.8381 48.8581 69.3116 47.6588 69.771Z" fill="white"/>
</g>
<g filter="url(#filter2_d_15_4396)">
<path d="M65.4393 66.7005C64.1568 66.7695 63.2259 68.8554 63.3606 71.3602C63.4953 73.865 64.6445 75.839 65.927 75.77C67.2095 75.701 68.1404 73.6152 68.0057 71.1104C67.8719 68.6063 66.7226 66.6315 65.4393 66.7005Z" fill="white"/>
</g>
<path d="M73.087 80.3267C73.6159 83.0224 68.5453 87.2425 61.3121 88.6618C54.0789 90.0811 47.4252 88.1616 46.8963 85.4659C46.1431 81.6273 52.8526 83.7828 60.0857 82.3635C67.3189 80.9442 72.2795 76.2115 73.087 80.3267Z" fill="white"/>
<mask id="mask0_15_4396" style="mask-type:alpha" maskUnits="userSpaceOnUse" x="46" y="78" width="28" height="12">
<path d="M73.1595 80.5382C73.6437 83.2422 68.5038 87.3778 61.2481 88.677C53.9925 89.9763 47.3715 87.9468 46.8872 85.2428C46.1977 81.3923 52.8706 83.6585 60.1263 82.3592C67.382 81.06 72.4203 76.4101 73.1595 80.5382Z" fill="white"/>
</mask>
<g mask="url(#mask0_15_4396)">
<mask id="mask1_15_4396" style="mask-type:alpha" maskUnits="userSpaceOnUse" x="46" y="78" width="28" height="12">
<path d="M73.0869 80.3267C73.6159 83.0224 68.5452 87.2425 61.312 88.6618C54.0788 90.0811 47.4251 88.1616 46.8962 85.4659C46.143 81.6273 52.8525 83.7828 60.0857 82.3635C67.3188 80.9442 72.2794 76.2115 73.0869 80.3267Z" fill="white"/>
</mask>
<g mask="url(#mask1_15_4396)">
<path d="M80.6052 73.6409C82.0024 76.5434 79.4451 81.8931 74.1388 84.4475C68.8324 87.0019 62.7886 85.7927 61.3914 82.8902C59.4018 78.7572 65.5756 80.2191 70.8819 77.6647C76.1883 75.1103 78.4723 69.21 80.6052 73.6409Z" fill="#FFD8C4"/>
</g>
</g>
</g>
<path d="M113.83 58.5889H109.161V29.6281H115.515L123.858 46.3994L126.495 52.4077H126.84L129.391 46.3994L137.647 29.6281H144.001V58.5889H139.332V40.8234L139.505 36.6305H139.159L137.387 40.8234L129.391 56.8599H123.771L115.775 40.8234L114.002 36.6305H113.657L113.83 40.8234V58.5889ZM159.14 59.0211C152.095 59.0211 147.47 55.0444 147.47 47.869C147.47 41.1692 152.051 36.6737 159.054 36.6737C165.711 36.6737 170.249 40.3479 170.249 46.8749C170.249 47.6529 170.206 48.2581 170.076 48.9064H151.835C152.008 53.0561 154.04 55.2605 159.011 55.2605C163.506 55.2605 165.365 53.7909 165.365 51.2406V50.8948H170.033V51.2838C170.033 55.8657 165.538 59.0211 159.14 59.0211ZM158.967 40.3479C154.213 40.3479 152.138 42.4659 151.878 46.3129H165.84V46.2265C165.84 42.2498 163.549 40.3479 158.967 40.3479ZM180.057 59.0211C175.604 59.0211 172.795 56.9463 172.795 53.4019C172.795 50.0735 175.475 48.3445 179.711 47.869L189.48 46.8316V45.5781C189.48 42.0337 187.923 40.7801 183.817 40.7801C179.84 40.7801 177.895 42.0769 177.895 45.2323V45.4052H173.27V45.2323C173.27 40.3479 177.333 36.6737 184.163 36.6737C190.992 36.6737 194.061 40.3911 194.061 45.5349V58.5889H189.782V53.229H189.48C188.356 56.8599 184.941 59.0211 180.057 59.0211ZM177.463 53.0993C177.463 54.8283 178.63 55.6496 181.31 55.6496C186.194 55.6496 189.48 53.8341 189.48 49.598L181.051 50.549C178.63 50.8516 177.463 51.4135 177.463 53.0993ZM202.897 58.5889H198.229V29.6281H202.897V58.5889ZM219.275 58.5889H214.607V29.6281H220.961L229.303 46.3994L231.94 52.4077H232.286L234.836 46.3994L243.092 29.6281H249.446V58.5889H244.778V40.8234L244.951 36.6305H244.605L242.833 40.8234L234.836 56.8599H229.217L221.22 40.8234L219.448 36.6305H219.102L219.275 40.8234V58.5889ZM260.09 59.0211C255.638 59.0211 252.829 56.9463 252.829 53.4019C252.829 50.0735 255.509 48.3445 259.745 47.869L269.514 46.8316V45.5781C269.514 42.0337 267.957 40.7801 263.851 40.7801C259.874 40.7801 257.929 42.0769 257.929 45.2323V45.4052H253.304V45.2323C253.304 40.3479 257.367 36.6737 264.197 36.6737C271.026 36.6737 274.095 40.3911 274.095 45.5349V58.5889H269.816V53.229H269.514C268.39 56.8599 264.975 59.0211 260.09 59.0211ZM257.497 53.0993C257.497 54.8283 258.664 55.6496 261.344 55.6496C266.228 55.6496 269.514 53.8341 269.514 49.598L261.085 50.549C258.664 50.8516 257.497 51.4135 257.497 53.0993ZM292.354 58.5889H287.426C282.801 58.5889 279.948 56.5573 279.948 51.3271V40.9963H276.317V37.106H279.948V32.3945H284.573V37.106H292.354V40.9963H284.573V51.0677C284.573 53.7044 285.784 54.396 288.464 54.396H292.354V58.5889ZM306.08 59.0211C299.035 59.0211 294.409 55.0444 294.409 47.869C294.409 41.1692 298.991 36.6737 305.994 36.6737C312.65 36.6737 317.189 40.3479 317.189 46.8749C317.189 47.6529 317.146 48.2581 317.016 48.9064H298.775C298.948 53.0561 300.98 55.2605 305.951 55.2605C310.446 55.2605 312.305 53.7909 312.305 51.2406V50.8948H316.973V51.2838C316.973 55.8657 312.478 59.0211 306.08 59.0211ZM305.907 40.3479C301.153 40.3479 299.078 42.4659 298.818 46.3129H312.78V46.2265C312.78 42.2498 310.489 40.3479 305.907 40.3479Z" fill="#FF7C3B"/>
<path d="M108.494 85.6753C108.239 85.6753 108.025 85.5889 107.852 85.416C107.679 85.2431 107.593 85.029 107.593 84.7738C107.593 84.5185 107.679 84.3045 107.852 84.1316C108.025 83.9587 108.239 83.8722 108.494 83.8722C108.741 83.8722 108.951 83.9587 109.124 84.1316C109.297 84.3045 109.384 84.5185 109.384 84.7738C109.384 85.029 109.297 85.2431 109.124 85.416C108.951 85.5889 108.741 85.6753 108.494 85.6753ZM111.473 85.6753C111.218 85.6753 111.004 85.5889 110.831 85.416C110.658 85.2431 110.572 85.029 110.572 84.7738C110.572 84.5185 110.658 84.3045 110.831 84.1316C111.004 83.9587 111.218 83.8722 111.473 83.8722C111.72 83.8722 111.93 83.9587 112.103 84.1316C112.276 84.3045 112.363 84.5185 112.363 84.7738C112.363 85.029 112.276 85.2431 112.103 85.416C111.93 85.5889 111.72 85.6753 111.473 85.6753ZM114.452 85.6753C114.197 85.6753 113.983 85.5889 113.81 85.416C113.637 85.2431 113.551 85.029 113.551 84.7738C113.551 84.5185 113.637 84.3045 113.81 84.1316C113.983 83.9587 114.197 83.8722 114.452 83.8722C114.699 83.8722 114.909 83.9587 115.082 84.1316C115.255 84.3045 115.342 84.5185 115.342 84.7738C115.342 85.029 115.255 85.2431 115.082 85.416C114.909 85.5889 114.699 85.6753 114.452 85.6753ZM119.691 85.6753C119.115 85.6753 118.596 85.5765 118.135 85.3789C117.674 85.1731 117.312 84.8849 117.048 84.5144C116.785 84.1439 116.653 83.7117 116.653 83.2177H118.16C118.193 83.5882 118.337 83.8928 118.592 84.1316C118.856 84.3703 119.222 84.4897 119.691 84.4897C120.177 84.4897 120.556 84.3744 120.828 84.1439C121.099 83.9051 121.235 83.6005 121.235 83.23C121.235 82.9418 121.149 82.7072 120.976 82.5261C120.811 82.3449 120.601 82.205 120.346 82.1062C120.099 82.0074 119.753 81.9003 119.308 81.7851C118.749 81.6369 118.292 81.4887 117.938 81.3405C117.592 81.184 117.295 80.9453 117.048 80.6242C116.801 80.3031 116.678 79.8749 116.678 79.3398C116.678 78.8458 116.801 78.4135 117.048 78.043C117.295 77.6725 117.641 77.3885 118.086 77.1908C118.53 76.9932 119.045 76.8944 119.63 76.8944C120.461 76.8944 121.14 77.1044 121.667 77.5243C122.202 77.936 122.499 78.5041 122.557 79.2286H121C120.976 78.9157 120.828 78.6482 120.556 78.4259C120.284 78.2036 119.926 78.0924 119.481 78.0924C119.078 78.0924 118.749 78.1953 118.493 78.4012C118.238 78.607 118.111 78.9034 118.111 79.2904C118.111 79.5538 118.189 79.772 118.345 79.9449C118.51 80.1096 118.716 80.2413 118.963 80.3401C119.21 80.4389 119.547 80.5459 119.975 80.6612C120.543 80.8176 121.005 80.9741 121.359 81.1305C121.721 81.2869 122.025 81.5298 122.272 81.8592C122.528 82.1803 122.655 82.6125 122.655 83.1559C122.655 83.5923 122.536 84.0039 122.297 84.3909C122.067 84.7779 121.725 85.0907 121.272 85.3295C120.828 85.5601 120.301 85.6753 119.691 85.6753ZM132.554 78.6729C133.089 78.6729 133.567 78.784 133.987 79.0063C134.415 79.2286 134.748 79.5579 134.987 79.9943C135.234 80.4307 135.358 80.9576 135.358 81.5751V85.5889H133.962V81.7851C133.962 81.1758 133.81 80.7106 133.505 80.3895C133.2 80.0602 132.785 79.8955 132.258 79.8955C131.731 79.8955 131.311 80.0602 130.998 80.3895C130.693 80.7106 130.541 81.1758 130.541 81.7851V85.5889H129.145V81.7851C129.145 81.1758 128.993 80.7106 128.689 80.3895C128.384 80.0602 127.968 79.8955 127.441 79.8955C126.914 79.8955 126.494 80.0602 126.181 80.3895C125.877 80.7106 125.725 81.1758 125.725 81.7851V85.5889H124.317V78.784H125.725V79.5621C125.955 79.2821 126.247 79.0639 126.601 78.9075C126.955 78.7511 127.334 78.6729 127.738 78.6729C128.281 78.6729 128.767 78.7881 129.195 79.0187C129.623 79.2492 129.952 79.5826 130.183 80.019C130.389 79.6073 130.71 79.2821 131.146 79.0434C131.583 78.7964 132.052 78.6729 132.554 78.6729ZM136.68 82.1556C136.68 81.4722 136.82 80.867 137.1 80.3401C137.388 79.8132 137.775 79.4056 138.261 79.1175C138.755 78.8211 139.298 78.6729 139.891 78.6729C140.426 78.6729 140.891 78.7799 141.286 78.994C141.69 79.1998 142.011 79.4591 142.25 79.772V78.784H143.67V85.5889H142.25V84.5762C142.011 84.8973 141.686 85.1648 141.274 85.3789C140.862 85.593 140.393 85.7 139.866 85.7C139.281 85.7 138.746 85.5518 138.261 85.2554C137.775 84.9508 137.388 84.5309 137.1 83.9957C136.82 83.4523 136.68 82.8389 136.68 82.1556ZM142.25 82.1803C142.25 81.711 142.151 81.3034 141.953 80.9576C141.764 80.6118 141.513 80.3483 141.2 80.1672C140.887 79.9861 140.549 79.8955 140.187 79.8955C139.825 79.8955 139.487 79.9861 139.174 80.1672C138.862 80.3401 138.606 80.5995 138.409 80.9453C138.219 81.2828 138.125 81.6863 138.125 82.1556C138.125 82.6249 138.219 83.0365 138.409 83.3906C138.606 83.7446 138.862 84.0163 139.174 84.2057C139.496 84.3868 139.833 84.4774 140.187 84.4774C140.549 84.4774 140.887 84.3868 141.2 84.2057C141.513 84.0245 141.764 83.7611 141.953 83.4153C142.151 83.0612 142.25 82.6496 142.25 82.1803ZM146.927 79.772C147.133 79.4262 147.405 79.1586 147.742 78.9693C148.088 78.7717 148.495 78.6729 148.965 78.6729V80.1302H148.607C148.055 80.1302 147.635 80.2701 147.347 80.5501C147.067 80.83 146.927 81.3158 146.927 82.0074V85.5889H145.519V78.784H146.927V79.772ZM151.901 79.9326V83.6993C151.901 83.9545 151.959 84.1398 152.074 84.2551C152.198 84.3621 152.404 84.4156 152.692 84.4156H153.556V85.5889H152.445C151.811 85.5889 151.325 85.4407 150.988 85.1443C150.65 84.8479 150.481 84.3662 150.481 83.6993V79.9326H149.678V78.784H150.481V77.092H151.901V78.784H153.556V79.9326H151.901ZM161.091 82.0197C161.091 82.2749 161.074 82.5055 161.041 82.7113H155.842C155.883 83.2547 156.085 83.6911 156.447 84.0204C156.809 84.3497 157.254 84.5144 157.781 84.5144C158.538 84.5144 159.074 84.1974 159.386 83.5635H160.905C160.7 84.1892 160.325 84.7038 159.782 85.1072C159.246 85.5024 158.58 85.7 157.781 85.7C157.13 85.7 156.546 85.5559 156.027 85.2678C155.517 84.9714 155.113 84.5597 154.817 84.0328C154.529 83.4976 154.385 82.8801 154.385 82.1803C154.385 81.4804 154.525 80.867 154.805 80.3401C155.093 79.8049 155.492 79.3933 156.003 79.1051C156.521 78.8169 157.114 78.6729 157.781 78.6729C158.423 78.6729 158.995 78.8128 159.498 79.0928C160 79.3727 160.391 79.7679 160.671 80.2784C160.951 80.7806 161.091 81.361 161.091 82.0197ZM159.621 81.5751C159.613 81.0564 159.428 80.6406 159.065 80.3278C158.703 80.0149 158.254 79.8585 157.719 79.8585C157.233 79.8585 156.818 80.0149 156.472 80.3278C156.126 80.6324 155.92 81.0482 155.854 81.5751H159.621ZM163.884 79.772C164.09 79.4262 164.362 79.1586 164.699 78.9693C165.045 78.7717 165.453 78.6729 165.922 78.6729V80.1302H165.564C165.012 80.1302 164.592 80.2701 164.304 80.5501C164.024 80.83 163.884 81.3158 163.884 82.0074V85.5889H162.476V78.784H163.884V79.772ZM179.464 77.0056V85.5889H178.056V79.7103L175.438 85.5889H174.463L171.832 79.7103V85.5889H170.424V77.0056H171.943L174.957 83.7364L177.958 77.0056H179.464ZM187.552 82.0197C187.552 82.2749 187.535 82.5055 187.502 82.7113H182.303C182.344 83.2547 182.546 83.6911 182.908 84.0204C183.27 84.3497 183.715 84.5144 184.242 84.5144C184.999 84.5144 185.534 84.1974 185.847 83.5635H187.366C187.161 84.1892 186.786 84.7038 186.243 85.1072C185.707 85.5024 185.04 85.7 184.242 85.7C183.591 85.7 183.007 85.5559 182.488 85.2678C181.978 84.9714 181.574 84.5597 181.278 84.0328C180.99 83.4976 180.846 82.8801 180.846 82.1803C180.846 81.4804 180.986 80.867 181.265 80.3401C181.554 79.8049 181.953 79.3933 182.463 79.1051C182.982 78.8169 183.575 78.6729 184.242 78.6729C184.884 78.6729 185.456 78.8128 185.958 79.0928C186.461 79.3727 186.852 79.7679 187.132 80.2784C187.412 80.7806 187.552 81.361 187.552 82.0197ZM186.082 81.5751C186.074 81.0564 185.888 80.6406 185.526 80.3278C185.164 80.0149 184.715 79.8585 184.18 79.8585C183.694 79.8585 183.279 80.0149 182.933 80.3278C182.587 80.6324 182.381 81.0482 182.315 81.5751H186.082ZM188.468 82.1556C188.468 81.4722 188.608 80.867 188.888 80.3401C189.176 79.8132 189.563 79.4056 190.049 79.1175C190.543 78.8211 191.086 78.6729 191.679 78.6729C192.214 78.6729 192.679 78.7799 193.074 78.994C193.478 79.1998 193.799 79.4591 194.038 79.772V78.784H195.458V85.5889H194.038V84.5762C193.799 84.8973 193.474 85.1648 193.062 85.3789C192.65 85.593 192.181 85.7 191.654 85.7C191.07 85.7 190.534 85.5518 190.049 85.2554C189.563 84.9508 189.176 84.5309 188.888 83.9957C188.608 83.4523 188.468 82.8389 188.468 82.1556ZM194.038 82.1803C194.038 81.711 193.939 81.3034 193.741 80.9576C193.552 80.6118 193.301 80.3483 192.988 80.1672C192.675 79.9861 192.338 79.8955 191.975 79.8955C191.613 79.8955 191.275 79.9861 190.963 80.1672C190.65 80.3401 190.394 80.5995 190.197 80.9453C190.007 81.2828 189.913 81.6863 189.913 82.1556C189.913 82.6249 190.007 83.0365 190.197 83.3906C190.394 83.7446 190.65 84.0163 190.963 84.2057C191.284 84.3868 191.621 84.4774 191.975 84.4774C192.338 84.4774 192.675 84.3868 192.988 84.2057C193.301 84.0245 193.552 83.7611 193.741 83.4153C193.939 83.0612 194.038 82.6496 194.038 82.1803ZM198.715 76.4498V85.5889H197.307V76.4498H198.715ZM203.034 85.7C202.498 85.7 202.017 85.6053 201.589 85.416C201.169 85.2184 200.835 84.9549 200.588 84.6256C200.341 84.288 200.209 83.9134 200.193 83.5017H201.65C201.675 83.7899 201.811 84.0328 202.058 84.2304C202.313 84.4197 202.63 84.5144 203.009 84.5144C203.404 84.5144 203.709 84.4403 203.923 84.2921C204.145 84.1357 204.256 83.9381 204.256 83.6993C204.256 83.4441 204.133 83.2547 203.886 83.1312C203.647 83.0077 203.264 82.8719 202.737 82.7237C202.227 82.5837 201.811 82.4478 201.49 82.3161C201.169 82.1844 200.889 81.9827 200.65 81.711C200.419 81.4393 200.304 81.0811 200.304 80.6365C200.304 80.2742 200.411 79.9449 200.625 79.6485C200.839 79.3439 201.144 79.1051 201.539 78.9322C201.943 78.7593 202.404 78.6729 202.922 78.6729C203.696 78.6729 204.318 78.8705 204.787 79.2657C205.265 79.6526 205.52 80.1837 205.553 80.8588H204.145C204.12 80.5542 203.997 80.3113 203.775 80.1302C203.552 79.949 203.252 79.8585 202.873 79.8585C202.502 79.8585 202.218 79.9284 202.021 80.0684C201.823 80.2084 201.724 80.3936 201.724 80.6242C201.724 80.8053 201.79 80.9576 201.922 81.0811C202.054 81.2046 202.214 81.3034 202.404 81.3775C202.593 81.4434 202.873 81.5298 203.243 81.6369C203.737 81.7686 204.141 81.9044 204.454 82.0444C204.775 82.1761 205.051 82.3737 205.281 82.6372C205.512 82.9007 205.631 83.2506 205.639 83.687C205.639 84.0739 205.532 84.4197 205.318 84.7244C205.104 85.029 204.8 85.2678 204.404 85.4407C204.017 85.6136 203.56 85.7 203.034 85.7ZM208.704 83.8969L207.21 87.3055H206.296L207.173 83.8969H208.704ZM222.183 77.0056V85.5889H220.775V79.7103L218.157 85.5889H217.181L214.551 79.7103V85.5889H213.143V77.0056H214.662L217.675 83.7364L220.676 77.0056H222.183ZM223.564 82.1556C223.564 81.4722 223.704 80.867 223.984 80.3401C224.272 79.8132 224.659 79.4056 225.145 79.1175C225.639 78.8211 226.182 78.6729 226.775 78.6729C227.31 78.6729 227.775 78.7799 228.171 78.994C228.574 79.1998 228.895 79.4591 229.134 79.772V78.784H230.554V85.5889H229.134V84.5762C228.895 84.8973 228.57 85.1648 228.158 85.3789C227.747 85.593 227.277 85.7 226.75 85.7C226.166 85.7 225.631 85.5518 225.145 85.2554C224.659 84.9508 224.272 84.5309 223.984 83.9957C223.704 83.4523 223.564 82.8389 223.564 82.1556ZM229.134 82.1803C229.134 81.711 229.035 81.3034 228.838 80.9576C228.648 80.6118 228.397 80.3483 228.084 80.1672C227.771 79.9861 227.434 79.8955 227.072 79.8955C226.709 79.8955 226.372 79.9861 226.059 80.1672C225.746 80.3401 225.491 80.5995 225.293 80.9453C225.104 81.2828 225.009 81.6863 225.009 82.1556C225.009 82.6249 225.104 83.0365 225.293 83.3906C225.491 83.7446 225.746 84.0163 226.059 84.2057C226.38 84.3868 226.717 84.4774 227.072 84.4774C227.434 84.4774 227.771 84.3868 228.084 84.2057C228.397 84.0245 228.648 83.7611 228.838 83.4153C229.035 83.0612 229.134 82.6496 229.134 82.1803ZM231.934 82.1556C231.934 81.4722 232.074 80.867 232.354 80.3401C232.642 79.8132 233.029 79.4056 233.515 79.1175C234.009 78.8211 234.556 78.6729 235.157 78.6729C235.602 78.6729 236.038 78.7717 236.467 78.9693C236.903 79.1586 237.249 79.4139 237.504 79.735V76.4498H238.924V85.5889H237.504V84.5638C237.273 84.8931 236.952 85.1648 236.541 85.3789C236.137 85.593 235.672 85.7 235.145 85.7C234.552 85.7 234.009 85.5518 233.515 85.2554C233.029 84.9508 232.642 84.5309 232.354 83.9957C232.074 83.4523 231.934 82.8389 231.934 82.1556ZM237.504 82.1803C237.504 81.711 237.405 81.3034 237.208 80.9576C237.018 80.6118 236.767 80.3483 236.454 80.1672C236.141 79.9861 235.804 79.8955 235.442 79.8955C235.079 79.8955 234.742 79.9861 234.429 80.1672C234.116 80.3401 233.861 80.5995 233.663 80.9453C233.474 81.2828 233.379 81.6863 233.379 82.1556C233.379 82.6249 233.474 83.0365 233.663 83.3906C233.861 83.7446 234.116 84.0163 234.429 84.2057C234.75 84.3868 235.088 84.4774 235.442 84.4774C235.804 84.4774 236.141 84.3868 236.454 84.2057C236.767 84.0245 237.018 83.7611 237.208 83.4153C237.405 83.0612 237.504 82.6496 237.504 82.1803ZM247.01 82.0197C247.01 82.2749 246.994 82.5055 246.961 82.7113H241.761C241.803 83.2547 242.004 83.6911 242.367 84.0204C242.729 84.3497 243.174 84.5144 243.7 84.5144C244.458 84.5144 244.993 84.1974 245.306 83.5635H246.825C246.619 84.1892 246.245 84.7038 245.701 85.1072C245.166 85.5024 244.499 85.7 243.7 85.7C243.05 85.7 242.465 85.5559 241.947 85.2678C241.436 84.9714 241.033 84.5597 240.736 84.0328C240.448 83.4976 240.304 82.8801 240.304 82.1803C240.304 81.4804 240.444 80.867 240.724 80.3401C241.012 79.8049 241.412 79.3933 241.922 79.1051C242.441 78.8169 243.034 78.6729 243.7 78.6729C244.343 78.6729 244.915 78.8128 245.417 79.0928C245.919 79.3727 246.31 79.7679 246.59 80.2784C246.87 80.7806 247.01 81.361 247.01 82.0197ZM245.541 81.5751C245.532 81.0564 245.347 80.6406 244.985 80.3278C244.623 80.0149 244.174 79.8585 243.639 79.8585C243.153 79.8585 242.737 80.0149 242.391 80.3278C242.046 80.6324 241.84 81.0482 241.774 81.5751H245.541ZM254.432 85.6753C253.856 85.6753 253.337 85.5765 252.876 85.3789C252.415 85.1731 252.053 84.8849 251.789 84.5144C251.526 84.1439 251.394 83.7117 251.394 83.2177H252.901C252.934 83.5882 253.078 83.8928 253.333 84.1316C253.596 84.3703 253.963 84.4897 254.432 84.4897C254.918 84.4897 255.297 84.3744 255.568 84.1439C255.84 83.9051 255.976 83.6005 255.976 83.23C255.976 82.9418 255.889 82.7072 255.716 82.5261C255.552 82.3449 255.342 82.205 255.087 82.1062C254.84 82.0074 254.494 81.9003 254.049 81.7851C253.489 81.6369 253.032 81.4887 252.678 81.3405C252.333 81.184 252.036 80.9453 251.789 80.6242C251.542 80.3031 251.419 79.8749 251.419 79.3398C251.419 78.8458 251.542 78.4135 251.789 78.043C252.036 77.6725 252.382 77.3885 252.827 77.1908C253.271 76.9932 253.786 76.8944 254.37 76.8944C255.202 76.8944 255.881 77.1044 256.408 77.5243C256.943 77.936 257.24 78.5041 257.297 79.2286H255.741C255.716 78.9157 255.568 78.6482 255.297 78.4259C255.025 78.2036 254.667 78.0924 254.222 78.0924C253.819 78.0924 253.489 78.1953 253.234 78.4012C252.979 78.607 252.851 78.9034 252.851 79.2904C252.851 79.5538 252.929 79.772 253.086 79.9449C253.251 80.1096 253.456 80.2413 253.703 80.3401C253.95 80.4389 254.288 80.5459 254.716 80.6612C255.284 80.8176 255.745 80.9741 256.099 81.1305C256.462 81.2869 256.766 81.5298 257.013 81.8592C257.268 82.1803 257.396 82.6125 257.396 83.1559C257.396 83.5923 257.277 84.0039 257.038 84.3909C256.807 84.7779 256.466 85.0907 256.013 85.3295C255.568 85.5601 255.041 85.6753 254.432 85.6753ZM259.774 77.8825C259.518 77.8825 259.304 77.796 259.131 77.6231C258.958 77.4502 258.872 77.2361 258.872 76.9809C258.872 76.7257 258.958 76.5116 259.131 76.3387C259.304 76.1658 259.518 76.0793 259.774 76.0793C260.021 76.0793 260.231 76.1658 260.403 76.3387C260.576 76.5116 260.663 76.7257 260.663 76.9809C260.663 77.2361 260.576 77.4502 260.403 77.6231C260.231 77.796 260.021 77.8825 259.774 77.8825ZM260.465 78.784V85.5889H259.057V78.784H260.465ZM270.551 78.6729C271.086 78.6729 271.564 78.784 271.984 79.0063C272.412 79.2286 272.745 79.5579 272.984 79.9943C273.231 80.4307 273.355 80.9576 273.355 81.5751V85.5889H271.959V81.7851C271.959 81.1758 271.807 80.7106 271.502 80.3895C271.197 80.0602 270.782 79.8955 270.255 79.8955C269.728 79.8955 269.308 80.0602 268.995 80.3895C268.69 80.7106 268.538 81.1758 268.538 81.7851V85.5889H267.143V81.7851C267.143 81.1758 266.99 80.7106 266.686 80.3895C266.381 80.0602 265.965 79.8955 265.438 79.8955C264.911 79.8955 264.491 80.0602 264.179 80.3895C263.874 80.7106 263.722 81.1758 263.722 81.7851V85.5889H262.314V78.784H263.722V79.5621C263.952 79.2821 264.244 79.0639 264.598 78.9075C264.952 78.7511 265.331 78.6729 265.735 78.6729C266.278 78.6729 266.764 78.7881 267.192 79.0187C267.62 79.2492 267.949 79.5826 268.18 80.019C268.386 79.6073 268.707 79.2821 269.143 79.0434C269.58 78.7964 270.049 78.6729 270.551 78.6729ZM276.554 79.7844C276.793 79.4715 277.118 79.208 277.53 78.994C277.941 78.7799 278.407 78.6729 278.925 78.6729C279.518 78.6729 280.057 78.8211 280.543 79.1175C281.037 79.4056 281.424 79.8132 281.704 80.3401C281.984 80.867 282.124 81.4722 282.124 82.1556C282.124 82.8389 281.984 83.4523 281.704 83.9957C281.424 84.5309 281.037 84.9508 280.543 85.2554C280.057 85.5518 279.518 85.7 278.925 85.7C278.407 85.7 277.945 85.5971 277.542 85.3913C277.139 85.1772 276.809 84.9137 276.554 84.6009V88.8246H275.146V78.784H276.554V79.7844ZM280.691 82.1556C280.691 81.6863 280.592 81.2828 280.395 80.9453C280.205 80.5995 279.95 80.3401 279.629 80.1672C279.316 79.9861 278.979 79.8955 278.616 79.8955C278.262 79.8955 277.925 79.9861 277.604 80.1672C277.291 80.3483 277.036 80.6118 276.838 80.9576C276.649 81.3034 276.554 81.711 276.554 82.1803C276.554 82.6496 276.649 83.0612 276.838 83.4153C277.036 83.7611 277.291 84.0245 277.604 84.2057C277.925 84.3868 278.262 84.4774 278.616 84.4774C278.979 84.4774 279.316 84.3868 279.629 84.2057C279.95 84.0163 280.205 83.7446 280.395 83.3906C280.592 83.0365 280.691 82.6249 280.691 82.1556ZM284.924 76.4498V85.5889H283.516V76.4498H284.924ZM293.009 82.0197C293.009 82.2749 292.993 82.5055 292.96 82.7113H287.76C287.802 83.2547 288.003 83.6911 288.366 84.0204C288.728 84.3497 289.173 84.5144 289.699 84.5144C290.457 84.5144 290.992 84.1974 291.305 83.5635H292.824C292.618 84.1892 292.244 84.7038 291.7 85.1072C291.165 85.5024 290.498 85.7 289.699 85.7C289.049 85.7 288.464 85.5559 287.946 85.2678C287.435 84.9714 287.032 84.5597 286.735 84.0328C286.447 83.4976 286.303 82.8801 286.303 82.1803C286.303 81.4804 286.443 80.867 286.723 80.3401C287.011 79.8049 287.411 79.3933 287.921 79.1051C288.44 78.8169 289.033 78.6729 289.699 78.6729C290.342 78.6729 290.914 78.8128 291.416 79.0928C291.918 79.3727 292.309 79.7679 292.589 80.2784C292.869 80.7806 293.009 81.361 293.009 82.0197ZM291.54 81.5751C291.531 81.0564 291.346 80.6406 290.984 80.3278C290.622 80.0149 290.173 79.8585 289.638 79.8585C289.152 79.8585 288.736 80.0149 288.39 80.3278C288.045 80.6324 287.839 81.0482 287.773 81.5751H291.54ZM294.963 85.6753C294.708 85.6753 294.494 85.5889 294.321 85.416C294.148 85.2431 294.061 85.029 294.061 84.7738C294.061 84.5185 294.148 84.3045 294.321 84.1316C294.494 83.9587 294.708 83.8722 294.963 83.8722C295.21 83.8722 295.42 83.9587 295.593 84.1316C295.766 84.3045 295.852 84.5185 295.852 84.7738C295.852 85.029 295.766 85.2431 295.593 85.416C295.42 85.5889 295.21 85.6753 294.963 85.6753Z" fill="white"/>
<defs>
<filter id="filter0_d_15_4396" x="-14.3777" y="-1.84882" width="126.822" height="124.822" filterUnits="userSpaceOnUse" color-interpolation-filters="sRGB">
<feFlood flood-opacity="0" result="BackgroundImageFix"/>
<feColorMatrix in="SourceAlpha" type="matrix" values="0 0 0 0 0 0 0 0 0 0 0 0 0 0 0 0 0 0 127 0" result="hardAlpha"/>
<feOffset dy="5.9733"/>
<feGaussianBlur stdDeviation="9.95549"/>
<feComposite in2="hardAlpha" operator="out"/>
<feColorMatrix type="matrix" values="0 0 0 0 0.0901961 0 0 0 0 0.0901961 0 0 0 0 0.0901961 0 0 0 0.2 0"/>
<feBlend mode="normal" in2="BackgroundImageFix" result="effect1_dropShadow_15_4396"/>
<feBlend mode="normal" in="SourceGraphic" in2="effect1_dropShadow_15_4396" result="shape"/>
</filter>
<filter id="filter1_d_15_4396" x="43.9653" y="67.7355" width="10.6357" height="13.8553" filterUnits="userSpaceOnUse" color-interpolation-filters="sRGB">
<feFlood flood-opacity="0" result="BackgroundImageFix"/>
<feColorMatrix in="SourceAlpha" type="matrix" values="0 0 0 0 0 0 0 0 0 0 0 0 0 0 0 0 0 0 127 0" result="hardAlpha"/>
<feOffset dy="0.651314"/>
<feGaussianBlur stdDeviation="1.30263"/>
<feComposite in2="hardAlpha" operator="out"/>
<feColorMatrix type="matrix" values="0 0 0 0 0 0 0 0 0 0 0 0 0 0 0 0 0 0 0.25 0"/>
<feBlend mode="normal" in2="BackgroundImageFix" result="effect1_dropShadow_15_4396"/>
<feBlend mode="normal" in="SourceGraphic" in2="effect1_dropShadow_15_4396" result="shape"/>
</filter>
<filter id="filter2_d_15_4396" x="60.7424" y="64.7448" width="9.88153" height="14.2835" filterUnits="userSpaceOnUse" color-interpolation-filters="sRGB">
<feFlood flood-opacity="0" result="BackgroundImageFix"/>
<feColorMatrix in="SourceAlpha" type="matrix" values="0 0 0 0 0 0 0 0 0 0 0 0 0 0 0 0 0 0 127 0" result="hardAlpha"/>
<feOffset dy="0.651314"/>
<feGaussianBlur stdDeviation="1.30263"/>
<feComposite in2="hardAlpha" operator="out"/>
<feColorMatrix type="matrix" values="0 0 0 0 0 0 0 0 0 0 0 0 0 0 0 0 0 0 0.25 0"/>
<feBlend mode="normal" in2="BackgroundImageFix" result="effect1_dropShadow_15_4396"/>
<feBlend mode="normal" in="SourceGraphic" in2="effect1_dropShadow_15_4396" result="shape"/>
</filter>
<radialGradient id="paint0_radial_15_4396" cx="0" cy="0" r="1" gradientUnits="userSpaceOnUse" gradientTransform="translate(46.7797 31.51) scale(8.97795 8.97797)">
<stop offset="0.3331" stop-color="#E9AD2B"/>
<stop offset="0.336" stop-color="#E9AC2B"/>
<stop offset="0.5025" stop-color="#E18A2F"/>
<stop offset="0.6602" stop-color="#DC7131"/>
<stop offset="0.8042" stop-color="#D86232"/>
<stop offset="0.9218" stop-color="#D75D33"/>
</radialGradient>
<radialGradient id="paint1_radial_15_4396" cx="0" cy="0" r="1" gradientUnits="userSpaceOnUse" gradientTransform="translate(58.8916 13.9654) rotate(180) scale(6.01168 5.75979)">
<stop offset="0.3331" stop-color="#E9AD2B"/>
<stop offset="0.336" stop-color="#E9AC2B"/>
<stop offset="0.5025" stop-color="#E18A2F"/>
<stop offset="0.6602" stop-color="#DC7131"/>
<stop offset="0.8042" stop-color="#D86232"/>
<stop offset="0.9218" stop-color="#D75D33"/>
</radialGradient>
<radialGradient id="paint2_radial_15_4396" cx="0" cy="0" r="1" gradientUnits="userSpaceOnUse" gradientTransform="translate(78.5113 26.6349) scale(1.30687 1.30686)">
<stop offset="0.0042" stop-color="#D81988"/>
<stop offset="0.1437" stop-color="#D21A87"/>
<stop offset="0.3325" stop-color="#C11D84"/>
<stop offset="0.5493" stop-color="#A42280"/>
<stop offset="0.7851" stop-color="#7D297A"/>
<stop offset="1" stop-color="#533174"/>
</radialGradient>
<radialGradient id="paint3_radial_15_4396" cx="0" cy="0" r="1" gradientUnits="userSpaceOnUse" gradientTransform="translate(83.6971 17.5647) rotate(180) scale(78.4018 75.1169)">
<stop offset="0.3331" stop-color="#E9AD2B"/>
<stop offset="0.336" stop-color="#E9AC2B"/>
<stop offset="0.5025" stop-color="#E18A2F"/>
<stop offset="0.6602" stop-color="#DC7131"/>
<stop offset="0.8042" stop-color="#D86232"/>
<stop offset="0.9218" stop-color="#D75D33"/>
</radialGradient>
<radialGradient id="paint4_radial_15_4396" cx="0" cy="0" r="1" gradientUnits="userSpaceOnUse" gradientTransform="translate(82.5485 14.1275) rotate(180) scale(28.8147 28.8147)">
<stop offset="0.3331" stop-color="#E9AD2B"/>
<stop offset="0.336" stop-color="#E9AC2B"/>
<stop offset="0.5025" stop-color="#E18A2F"/>
<stop offset="0.6602" stop-color="#DC7131"/>
<stop offset="0.8042" stop-color="#D86232"/>
<stop offset="0.9218" stop-color="#D75D33"/>
</radialGradient>
<radialGradient id="paint5_radial_15_4396" cx="0" cy="0" r="1" gradientUnits="userSpaceOnUse" gradientTransform="translate(68.2973 48.461) rotate(180) scale(6.01094 4.83013)">
<stop offset="0.3331" stop-color="#E9AD2B"/>
<stop offset="0.336" stop-color="#E9AC2B"/>
<stop offset="0.5025" stop-color="#E18A2F"/>
<stop offset="0.6602" stop-color="#DC7131"/>
<stop offset="0.8042" stop-color="#D86232"/>
<stop offset="0.9218" stop-color="#D75D33"/>
</radialGradient>
<radialGradient id="paint6_radial_15_4396" cx="0" cy="0" r="1" gradientUnits="userSpaceOnUse" gradientTransform="translate(52.2523 34.4367) rotate(180) scale(28.4132 22.8181)">
<stop offset="0.3331" stop-color="#E9AD2B"/>
<stop offset="0.336" stop-color="#E9AC2B"/>
<stop offset="0.5025" stop-color="#E18A2F"/>
<stop offset="0.6602" stop-color="#DC7131"/>
<stop offset="0.8042" stop-color="#D86232"/>
<stop offset="0.9218" stop-color="#D75D33"/>
</radialGradient>
<radialGradient id="paint7_radial_15_4396" cx="0" cy="0" r="1" gradientUnits="userSpaceOnUse" gradientTransform="translate(75.8016 60.1468) rotate(169.426) scale(39.7654 39.7654)">
<stop offset="0.0782" stop-color="#DC5838"/>
<stop offset="0.1894" stop-color="#D95338"/>
<stop offset="0.3255" stop-color="#D04438"/>
<stop offset="0.4746" stop-color="#C12B39"/>
<stop offset="0.632" stop-color="#AC093A"/>
<stop offset="0.6669" stop-color="#A7003A"/>
</radialGradient>
<radialGradient id="paint8_radial_15_4396" cx="0" cy="0" r="1" gradientUnits="userSpaceOnUse" gradientTransform="translate(69.3791 46.2981) rotate(169.426) scale(51.4034 51.4034)">
<stop offset="0.1011" stop-color="#E9AD2B"/>
<stop offset="0.1051" stop-color="#E9AC2B"/>
<stop offset="0.3372" stop-color="#E18A2F"/>
<stop offset="0.557" stop-color="#DC7131"/>
<stop offset="0.7578" stop-color="#D86232"/>
<stop offset="0.9218" stop-color="#D75D33"/>
</radialGradient>
</defs>
</svg>
